/* XPM */
static char *_0b0ca69c500429a8168239305bb8d89Q0p61tes23FDmrWY[] = {
/* columns rows colors chars-per-pixel */
"16 16 3 1 ",
"  c #0E071B",
". c #1A1932",
"X c white",
/* pixels */
" .. ........ .. ",
" .. .     .. .. ",
"                ",
"......... .... .",
"  ..    . ..   .",
"                ",
"     .   .... . ",
"     ..    ..   ",
"                ",
"       .. .     ",
"     . ..       ",
"                ",
"                ",
"                ",
"                ",
"                "
};
