/* XPM */
static char *_38cc1d6c4124639ff4163e1bbbf0e40R4k8RPj2xznzkW9N[] = {
/* columns rows colors chars-per-pixel */
"16 16 12 1 ",
"  c #221141",
". c #92A1B9",
"X c #9BAAC1",
"o c #657392",
"O c #6F7FA1",
"+ c #0E071B",
"@ c #354169",
"# c #424C6E",
"$ c #2A2F4E",
"% c #22284A",
"& c #1A1932",
"* c white",
/* pixels */
"                ",
"..X ..XX..X. XX.",
"oOO oooOOooo OOo",
" +   +++  +   ++",
"+oOOOooOO OoOOoo",
"+@###@@@# @@#@@#",
"++   +++++  ++++",
"@#@@ ##@@##@@+@#",
"$$$$+$$$$$$$$+$$",
"++++++++++++++++",
"+$$$$$$$$+%$$%%$",
"+%%%$%%%$+%%$$$$",
"++++++++++++++++",
"&&&+&&&&&&&&+&&&",
"&&&+&&&&&&&&+&&&",
"++++++++++++++++"
};
